# xmcd
#
# Track frame offsets:
#  150
#  13259
#  22658
#  39262
#  48597
#  67167
#  81625
#  96960
#  105974
#  117831
#
# Disc length: 1739 seconds
#
# Revision: 0
# Processed by: cddbd v1.5.1PL0 Copyright (c) Steve Scherf et al.
# Submitted via: Collectorz.com_Music_Collector 6.9
#
DISCID=7b06c90a
DTITLE=Cool Disposition - Safe In Sound
DYEAR=2001
DGENRE=Blues -  Blues Chicago
TTITLE0=Everything's Going To Be Alright
TTITLE1=Certainly All
TTITLE2=Scratch My Back
TTITLE3=Nobody But You
TTITLE4=Merry Christmas Baby
TTITLE5=Rock With Me
TTITLE6=Early In The Mornin'
TTITLE7=Jumpin' In The Heart Of Town
TTITLE8=Teenage Letter
TTITLE9=I Have The Same Old Blues
EXTD=
EXTT0=
EXTT1=
EXTT2=
EXTT3=
EXTT4=
EXTT5=
EXTT6=
EXTT7=
EXTT8=
EXTT9=
PLAYORDER=
